<?xml version="1.0" encoding="utf-8"?>
<!-- Generator: Adobe Illustrator 16.0.4, SVG Export Plug-In . SVG Version: 6.00 Build 0)  -->
<!DOCTYPE svg PUBLIC "-//W3C//DTD SVG 1.1//EN" "http://www.w3.org/Graphics/SVG/1.1/DTD/svg11.dtd">
<svg version="1.1" id="Layer_1" xmlns="http://www.w3.org/2000/svg" xmlns:xlink="http://www.w3.org/1999/xlink" x="0px" y="0px"
	 width="800px" height="800px" viewBox="0 0 800 800" enable-background="new 0 0 800 800" xml:space="preserve">
<path fill-rule="evenodd" clip-rule="evenodd" fill="#003865" d="M670.876,403.805c-44.307,74.047-141.86,68.094-180.417-0.691
	c-21.009,33.508-49.976,53.719-90.136,53.866c-40.36,0.148-69.656-19.578-90.826-53.841c-21.022,34.297-50.368,53.848-90.475,53.818
	c-39.912-0.032-69.041-19.425-89.515-53.074c-3.355,1.187-4.065,4.584-5.786,7.082c-19.463,28.235-46.39,43.372-80.471,46.091
	c-8.227,0.657-15.13-1.864-15.831-10.676c-0.707-8.9,5.763-12.104,14.028-12.697c44.005-3.153,73.808-33.488,75.833-77.471
	c0.365-7.936,4.02-12.845,11.304-12.998c8.746-0.184,12.545,6.044,12.421,14.357c-0.488,32.677,22.756,64.895,59.51,74.258
	c47.332,12.059,95.316-23.428,96.828-72.17c0.215-6.923,1.316-12.832,8.386-15.969c4.704-2.087,8.379-0.041,11.869,2.721
	c3.93,3.11,3.354,7.648,3.581,11.932c2.301,43.237,36.255,75.757,78.956,75.647c42.473-0.109,76.587-32.954,78.506-76.152
	c0.376-8.477,2.977-14.737,11.773-14.688c8.757,0.047,12.112,6.71,12.029,14.836c-0.447,44.006,39.8,79.73,85.594,75.832
	c37.764-3.214,69.623-35.704,70.665-73.498c0.2-7.292,1.063-13.794,8.855-16.69c7.687-2.856,14.236,2.998,14.857,13.067
	c2.432,39.248,27.487,68.696,64.792,75.969c3.86,0.753,7.864,0.888,11.809,1.069c7.873,0.366,13.94,3.804,13.606,12.065
	c-0.359,8.875-7.017,11.921-15.308,11.287c-34.889-2.673-62.431-18.046-81.814-47.472c-1.178-1.788-2.439-3.526-3.704-5.258
	C671.603,404.091,671.187,403.984,670.876,403.805z"/>
</svg>
