<?xml version="1.0" standalone="no"?>
<!DOCTYPE svg PUBLIC "-//W3C//DTD SVG 20010904//EN"
 "http://www.w3.org/TR/2001/REC-SVG-20010904/DTD/svg10.dtd">
<svg version="1.0" xmlns="http://www.w3.org/2000/svg"
 width="72.000000pt" height="72.000000pt" viewBox="0 0 72.000000 72.000000"
 preserveAspectRatio="xMidYMid meet">
<metadata>
Created by potrace 1.11, written by Peter Selinger 2001-2013
</metadata>
<g transform="translate(0.000000,72.000000) scale(0.100000,-0.100000)"
fill="#000000" stroke="none">
<path d="M303 557 l-41 -72 35 -65 c20 -36 40 -71 46 -77 10 -14 107 -18 107
-5 0 5 -21 7 -48 6 l-47 -3 -38 66 c-20 36 -37 69 -37 74 0 6 17 39 37 75 l38
65 80 -3 80 -3 39 -67 38 -68 -42 -71 c-23 -39 -40 -73 -37 -75 5 -5 87 134
87 149 0 6 -18 41 -40 79 l-41 68 -87 0 -87 -1 -42 -72z"/>
<path d="M155 382 c-6 -4 -16 -17 -22 -29 -7 -13 -19 -32 -25 -43 -11 -17 -9
-28 12 -68 l25 -47 63 0 63 0 26 47 26 48 -29 47 c-27 43 -33 47 -67 46 -54
-1 -59 -13 -6 -13 43 0 46 -2 66 -44 l21 -43 -24 -42 c-24 -40 -27 -41 -78
-41 -52 0 -52 0 -74 46 l-23 46 23 36 c12 21 27 40 32 44 6 4 8 9 5 12 -2 3
-9 2 -14 -2z"/>
<path d="M470 340 c-12 -8 -10 -10 8 -10 13 0 20 4 17 10 -7 12 -6 12 -25 0z"/>
<path d="M347 241 l-27 -49 27 -46 c15 -25 32 -46 38 -47 64 -4 97 -4 103 1 5
3 19 25 34 50 l25 45 -27 45 c-26 45 -27 45 -86 48 l-60 3 -27 -50z m162 -4
l24 -43 -24 -42 c-26 -45 -36 -50 -92 -42 -31 4 -42 12 -61 45 l-24 40 25 43
c24 41 27 42 77 42 50 0 52 -1 75 -43z"/>
</g>
</svg>
