<?xml version="1.0" standalone="no"?>
<!DOCTYPE svg PUBLIC "-//W3C//DTD SVG 20010904//EN"
 "http://www.w3.org/TR/2001/REC-SVG-20010904/DTD/svg10.dtd">
<svg version="1.0" xmlns="http://www.w3.org/2000/svg"
 width="700.000000pt" height="700.000000pt" viewBox="0 0 700.000000 700.000000"
 preserveAspectRatio="xMidYMid meet">
<metadata>
Created by potrace 1.11, written by Peter Selinger 2001-2013
</metadata>
<g transform="translate(0.000000,700.000000) scale(0.100000,-0.100000)"
fill="#000000" stroke="none">
<path d="M1084 3986 c-38 -17 -50 -46 -64 -158 -27 -220 -122 -384 -285 -495
-80 -55 -152 -87 -245 -108 -13 -3 -90 -15 -130 -21 -53 -7 -96 -28 -110 -53
-26 -50 1 -123 52 -140 80 -26 277 13 425 84 94 46 221 139 266 197 14 18 36
45 49 59 13 15 34 45 48 68 14 22 30 41 36 41 6 0 28 -25 48 -56 80 -119 218
-246 334 -304 128 -65 232 -90 383 -95 161 -4 308 28 442 97 108 54 237 173
324 296 l50 72 25 -32 c13 -18 31 -44 40 -58 29 -46 150 -171 197 -202 25 -18
48 -35 51 -39 11 -14 148 -78 212 -97 87 -27 160 -36 283 -36 194 1 376 62
519 174 53 41 158 153 206 218 l53 74 39 -62 c50 -77 175 -204 250 -254 148
-96 305 -146 474 -151 311 -8 587 134 769 397 22 32 45 58 50 57 6 0 28 -27
50 -61 76 -118 224 -247 350 -306 140 -66 346 -106 419 -82 41 13 66 48 66 90
0 68 -44 99 -149 107 -86 6 -189 36 -276 82 -100 51 -228 181 -278 281 -30 61
-77 193 -75 215 2 30 -17 136 -28 157 -34 66 -107 74 -156 18 -16 -17 -28 -40
-29 -53 -8 -200 -56 -330 -175 -473 -173 -206 -487 -284 -754 -187 -136 50
-287 175 -354 295 -59 107 -79 176 -91 326 -8 91 -40 130 -105 127 -72 -3 -85
-22 -105 -162 -25 -168 -61 -257 -150 -373 -128 -167 -339 -262 -561 -254
-281 11 -514 176 -614 435 -34 90 -48 156 -49 246 -2 77 -75 132 -137 101 -46
-22 -65 -59 -71 -133 -15 -217 -120 -408 -289 -525 -349 -243 -821 -121 -1014
261 -36 70 -57 152 -65 252 -3 42 -10 88 -16 100 -20 45 -83 65 -135 43z"/>
</g>
</svg>
